<?xml version="1.0" encoding="utf-8"?>
<!-- Generator: Adobe Illustrator 16.0.0, SVG Export Plug-In . SVG Version: 6.00 Build 0)  -->
<!DOCTYPE svg PUBLIC "-//W3C//DTD SVG 1.1//EN" "http://www.w3.org/Graphics/SVG/1.1/DTD/svg11.dtd">
<svg version="1.1" id="Слой_1" xmlns="http://www.w3.org/2000/svg" xmlns:xlink="http://www.w3.org/1999/xlink" x="0px" y="0px"
	 width="394px" height="500px" viewBox="203 50 394 500" enable-background="new 203 50 394 500" xml:space="preserve">
<path d="M402,50h-2L203,71v362l197,117l197-117V71L402,50z M572,418L400,520L228,418V270l171,102v18l-117-70v18l118,71v19l-118-70
	v18l118,70l119-71v-76l53-32V418L572,418z M571,248l-47,28l-22,13l-103-61v18l88,52.999h-1l-2,1L471,307l-73-43v18l58,33.999l-14,9
	l-43-26v18l29,17l-29,17L229,250l170-102L571,248L571,248z M572,230L399,128L228,230V94l172-18l172,18V230z"/>
</svg>
